<svg xmlns="http://www.w3.org/2000/svg" width="98" height="81" fill="none"><path stroke="#05C2DF" d="M45.014 28.079v-7.01m16.632 14.295h8.11m-37.8 10.447h4.398m17.594 14.708v-7.01"/><rect width="24.567" height="24.567" x="36.717" y="28.441" stroke="#05C2DF" rx="3.5"/><rect width="15.495" height="15.495" x="41.39" y="33.115" stroke="#05C2DF" rx="3.5"/><rect width="18.519" height="18.519" x="69.981" y="1.5" stroke="#05C2DF" rx="3.5"/><rect width="9.997" height="9.997" x="74.38" y="5.898" stroke="#05C2DF" rx="2.5"/><rect width="18.519" height="18.519" x="9.5" y="1.5" stroke="#05C2DF" rx="3.5"/><rect width="9.997" height="9.997" x="13.899" y="5.898" stroke="#05C2DF" rx="2.5"/><rect width="18.519" height="18.519" x="10.325" y="61.432" stroke="#05C2DF" rx="3.5"/><rect width="9.997" height="9.997" x="14.723" y="65.83" stroke="#05C2DF" rx="2.5"/><rect width="18.519" height="18.519" x="69.981" y="61.432" stroke="#05C2DF" rx="3.5"/><rect width="9.997" height="9.997" x="74.38" y="65.83" stroke="#05C2DF" rx="2.5"/><path stroke="#05C2DF" d="M54.223 28.079V10.897h15.12M36.354 38.113H18.897V20.52M61.784 41.962h17.182V60.93M45.564 53.508V70.69H29.206"/><circle cx="45.014" cy="18.594" r="1.974" stroke="#05C2DF"/><circle cx="72.23" cy="35.364" r="1.974" stroke="#05C2DF"/><circle cx="29.619" cy="45.811" r="1.974" stroke="#05C2DF"/><circle cx="53.811" cy="62.856" r="1.974" stroke="#05C2DF"/></svg>